<svg xmlns="http://www.w3.org/2000/svg" viewBox="0 0 128 128" role="img" aria-labelledby="title">
  <title>The Fridge</title>
  <defs>
    <linearGradient id="bg" x1="0%" y1="0%" x2="100%" y2="100%">
      <stop offset="0%" stop-color="#234034" />
      <stop offset="100%" stop-color="#c16a3f" />
    </linearGradient>
  </defs>
  <rect width="128" height="128" rx="28" fill="url(#bg)" />
  <rect x="36" y="20" width="56" height="88" rx="16" fill="#f8f2e5" />
  <rect x="42" y="26" width="44" height="38" rx="10" fill="#dce7de" />
  <rect x="42" y="68" width="44" height="34" rx="10" fill="#efe5d1" />
  <rect x="88" y="52" width="6" height="24" rx="3" fill="#f8f2e5" />
  <circle cx="64" cy="46" r="9" fill="#c16a3f" />
  <path d="M64 38c5 0 10 4 10 11 0 9-10 16-10 16s-10-7-10-16c0-7 5-11 10-11Z" fill="#5d8a67" />
  <path d="M62 34c0-5 3-8 8-9" fill="none" stroke="#c16a3f" stroke-width="4" stroke-linecap="round" />
</svg>
